<?xml version="1.0" encoding="UTF-8" standalone="no"?>
<svg width="51px" height="51px" viewBox="0 0 51 51" version="1.1" xmlns="http://www.w3.org/2000/svg" xmlns:xlink="http://www.w3.org/1999/xlink" xmlns:sketch="http://www.bohemiancoding.com/sketch/ns">
    <!-- Generator: Sketch 3.2.2 (9983) - http://www.bohemiancoding.com/sketch -->
    <title>Slice 1</title>
    <desc>Created with Sketch.</desc>
    <defs></defs>
    <g id="Page-1" stroke="none" stroke-width="1" fill="none" fill-rule="evenodd" sketch:type="MSPage">
        <path d="M31.1,14 C31.5,14 32.2,14.1 32.5,14.3 C28.2,18.6 23.8,22.9 19.5,27.2 L19.5,27.2 C18.8,27.3 18.2,27.3 17.6,27.4 C22.1,22.9 26.6,18.5 31.1,14 L31.1,14 Z M33.8,15 C34.6,15.7 35.4,16.4 36.2,17.1 C34.6,18.6 33.1,20.1 31.6,21.7 C28.6,24.6 25.7,27.5 22.8,30.4 C22.3,30.3 21.2,30.2 20.9,29.9 C20.7,29.3 20.6,28.7 20.5,28.2 C24.9,23.8 29.4,19.4 33.8,15 L33.8,15 Z M36.8,18.4 C37,18.6 37.3,19.5 37.1,19.8 L23.9,33 L23.8,33 C23.8,32.5 23.7,31.9 23.7,31.4 C28.1,27 32.5,22.7 36.8,18.4 L36.8,18.4 Z M18.4,28.7 L19.2,28.7 C19.4,29.5 19.6,30.3 19.7,31.1 C20.6,31.3 21.5,31.5 22.4,31.7 C22.4,32.5 22.5,33.3 22.5,34.1 C21.2,34.5 19.8,34.9 18.5,35.3 C17.9,34.1 16.8,32.8 15.5,32.4 C15.9,31.2 16.3,29.9 16.8,28.7 L18.4,28.7 L18.4,28.7 Z M15.1,33.7 C16,34 16.8,34.9 17.2,35.7 C16.8,35.8 16.4,36 16,36.1 C14.3,36.4 14.7,34.5 15.1,33.7 L15.1,33.7 Z" id="edit" fill="#9DE100" sketch:type="MSShapeGroup"></path>
        <path d="M1,25.5 C1,12 12,1 25.5,1 C39,1 50,12 50,25.5 C50,39 39,50 25.5,50 C12,50 1,39 1,25.5 L1,25.5 Z" id="Ellipse" stroke="#9DE100" sketch:type="MSShapeGroup"></path>
    </g>
</svg>