<?xml version="1.0" standalone="no"?><svg viewBox="0 0 264 172" style="background-color:#ffffff00" version="1.1" xmlns="http://www.w3.org/2000/svg" xmlns:xlink="http://www.w3.org/1999/xlink" xml:space="preserve" x="0px" y="0px" width="264px" height="172px">	<g id="Layer%201">		<path d="M 126 23 L 135 23 L 135 21 L 126 21 L 126 23 Z" fill="#9fdf00"/>		<path d="M 126.1 27.3 L 135 27.3 L 135 25 L 126.1 25 L 126.1 27.3 Z" fill="#9fdf00"/>		<path d="M 126.1 31.3 L 135 31.3 L 135 28.8 L 126.1 28.8 L 126.1 31.3 Z" fill="#9fdf00"/>		<path d="M 126.1 35.1 L 135 35.1 L 135 32.6 L 126.1 32.6 L 126.1 35.1 Z" fill="#9fdf00"/>		<path d="M 126 19 L 135 19 L 135 17 L 126 17 L 126 19 Z" fill="#9fdf00"/>		<path d="M 126.1 10.9 L 135 10.9 L 135 8.8 L 126.1 8.8 L 126.1 10.9 Z" fill="#9fdf00"/>		<path d="M 126.1 13.1 L 135.1 13.1 L 135.1 15.2 L 126.1 15.2 L 126.1 13.1 Z" stroke="#96c952" stroke-width="1" fill="#9fdf00"/>		<path d="M 104.4 17.3 L 156.7 17.3 L 156.7 40.4 L 160.2 40.4 C 160.7 39.1 162 38.1 163.4 38.1 C 165.3 38.1 166.8 39.6 166.8 41.5 C 166.8 43.4 165.3 44.9 163.4 44.9 C 162 44.9 160.7 44 160.2 42.6 L 156.7 42.6 L 156.7 55.9 L 170.8 55.9 L 170.8 19.4 L 173.2 19.4 L 173.2 7.6 L 170.8 7.6 L 170.8 1.3 C 170.8 0.6 170.2 0 169.5 0 L 158 0 C 157.3 0 156.7 0.6 156.7 1.3 L 156.7 10.6 L 104.4 10.6 L 104.4 1.3 C 104.4 0.6 103.9 0 103.2 0 L 91.7 0 C 91 0 90.4 0.6 90.4 1.3 L 90.4 7.6 L 87.8 7.6 L 87.8 19.4 L 90.4 19.4 L 90.4 55.4 L 104.4 55.4 L 104.4 17.3 Z" fill="#9fdf00"/>		<path d="M 182.7 56.9 L 77.6 56.9 C 76.9 56.9 76.4 57.5 76.4 58.2 L 76.4 59.1 C 76.4 59.7 76.9 60.3 77.6 60.3 L 182.7 60.3 C 183.4 60.3 184 59.7 184 59.1 L 184 58.2 C 184 57.5 183.4 56.9 182.7 56.9 Z" fill="#9fdf00"/>		<path d="M 182.7 62.4 L 170.8 62.4 L 156.7 62.4 L 104.4 62.4 L 90.4 62.4 L 77.6 62.4 C 76.9 62.4 76.4 63 76.4 63.7 L 76.4 64.5 C 76.4 65.2 76.9 65.8 77.6 65.8 L 90.4 65.8 L 90.4 99.1 C 90.4 99.8 91 100.4 91.7 100.4 L 103.2 100.4 C 103.9 100.4 104.4 99.8 104.4 99.1 L 104.4 81.3 L 130.8 74.1 L 156.7 80.9 L 156.7 99.1 C 156.7 99.8 157.3 100.4 158 100.4 L 169.5 100.4 C 170.2 100.4 170.8 99.8 170.8 99.1 L 170.8 65.8 L 182.7 65.8 C 183.4 65.8 184 65.2 184 64.5 L 184 63.7 C 184 63 183.4 62.4 182.7 62.4 ZM 149.7 65.8 L 130.8 71 L 111.1 65.8 L 149.7 65.8 ZM 104.4 78.1 L 104.4 67.2 L 124.8 72.6 L 104.4 78.1 ZM 136.8 72.5 L 156.7 67.1 L 156.7 77.8 L 136.8 72.5 Z" fill="#9fdf00"/>		<path d="M 135.5 45.5 L 125.4 45.5 C 125.4 46.6 122.5 47.9 121.4 47.9 L 121.4 50.1 L 139.6 50.1 L 139.6 47.9 C 138.5 47.9 135.5 46.6 135.5 45.5 Z" fill="#9fdf00"/>		<path d="M 156.6 39.4 L 156.6 41.6 L 156.7 41.6 L 156.7 39.4 L 156.6 39.4 Z" fill="#9fdf00"/>		<path d="M 156.7 40.4 L 135.4 40.4 L 135.4 39.3 C 135.4 38.3 134.5 37.4 133.5 37.4 L 127.5 37.4 C 126.4 37.4 125.5 38.3 125.5 39.3 L 125.5 45.2 L 135.4 45.2 L 135.4 42.6 L 156.7 42.6 L 156.7 40.4 Z" fill="#9fdf00"/>		<path d="M 0 114.2 L 20.9 114.2 C 31.3 114.2 38.8 121.2 38.8 132 C 38.8 142.8 31.3 150 20.9 150 L 8 150 L 8 171 L 0 171 L 0 114.2 ZM 19.6 143.1 C 26.4 143.1 30.7 138.8 30.7 132 C 30.7 125.1 26.4 121.1 19.7 121.1 L 8 121.1 L 8 143.1 L 19.6 143.1 Z" fill="#ededed"/>		<path d="M 45.5 130.3 L 53.1 130.3 L 53.1 137.4 C 53.1 139.1 52.9 140.4 52.9 140.4 L 53.1 140.4 C 54.9 134.5 59.7 129.8 66 129.8 C 67.1 129.8 68 130 68 130 L 68 137.7 C 68 137.7 67 137.4 65.8 137.4 C 60.7 137.4 56.1 141 54.3 147 C 53.5 149.4 53.3 151.9 53.3 154.4 L 53.3 171 L 45.5 171 L 45.5 130.3 Z" fill="#ededed"/>		<path d="M 91.2 129.3 C 102.7 129.3 108.9 137.9 108.9 148.4 C 108.9 149.5 108.6 151.8 108.6 151.8 L 78.8 151.8 C 79.2 160.7 85.6 165.2 92.9 165.2 C 99.9 165.2 105 160.5 105 160.5 L 108.2 166.2 C 108.2 166.2 102.2 172 92.4 172 C 79.5 172 70.7 162.7 70.7 150.7 C 70.7 137.7 79.5 129.3 91.2 129.3 ZM 100.9 145.9 C 100.6 138.9 96.3 135.5 91 135.5 C 85 135.5 80.2 139.2 79 145.9 L 100.9 145.9 Z" fill="#ededed"/>		<path d="M 116.9 160.5 C 116.9 160.5 121.5 165.2 128.6 165.2 C 132 165.2 135.4 163.5 135.4 160.2 C 135.4 152.7 114.4 154.2 114.4 140.9 C 114.4 133.5 121 129.3 129.2 129.3 C 138.1 129.3 142.4 133.8 142.4 133.8 L 139.2 139.7 C 139.2 139.7 135.6 136.1 129.1 136.1 C 125.7 136.1 122.4 137.5 122.4 141.1 C 122.4 148.4 143.4 146.8 143.4 160.2 C 143.4 166.9 137.6 172 128.6 172 C 118.6 172 113.1 166 113.1 166 L 116.9 160.5 Z" fill="#ededed"/>		<path d="M 151.1 160.5 C 151.1 160.5 155.7 165.2 162.8 165.2 C 166.2 165.2 169.6 163.5 169.6 160.2 C 169.6 152.7 148.6 154.2 148.6 140.9 C 148.6 133.5 155.2 129.3 163.4 129.3 C 172.4 129.3 176.6 133.8 176.6 133.8 L 173.4 139.7 C 173.4 139.7 169.8 136.1 163.3 136.1 C 159.9 136.1 156.6 137.5 156.6 141.1 C 156.6 148.4 177.6 146.8 177.6 160.2 C 177.6 166.9 171.8 172 162.8 172 C 152.8 172 147.3 166 147.3 166 L 151.1 160.5 Z" fill="#ededed"/>		<path d="M 202.4 129.3 C 214 129.3 220.2 137.9 220.2 148.4 C 220.2 149.5 219.9 151.8 219.9 151.8 L 190.1 151.8 C 190.5 160.7 196.9 165.2 204.1 165.2 C 211.2 165.2 216.3 160.5 216.3 160.5 L 219.5 166.2 C 219.5 166.2 213.4 172 203.7 172 C 190.8 172 182 162.7 182 150.7 C 182 137.7 190.8 129.3 202.4 129.3 ZM 212.2 145.9 C 211.9 138.9 207.5 135.5 202.3 135.5 C 196.3 135.5 191.4 139.2 190.3 145.9 L 212.2 145.9 Z" fill="#ededed"/>		<path d="M 243.5 129.3 C 253 129.3 256.2 135.8 256.2 135.8 L 256.3 135.8 C 256.3 135.8 256.2 134.6 256.2 133 L 256.2 114.2 L 264 114.2 L 264 171 L 256.6 171 L 256.6 167.2 C 256.6 165.6 256.6 164.4 256.6 164.4 L 256.5 164.4 C 256.5 164.4 253.2 172 243.1 172 C 232 172 225 163.3 225 150.7 C 225 137.7 232.7 129.3 243.5 129.3 ZM 244.6 165.2 C 250.7 165.2 256.4 161 256.4 150.6 C 256.4 143.3 252.6 136.1 244.8 136.1 C 238.4 136.1 233 141.4 233 150.7 C 233 159.5 237.8 165.2 244.6 165.2 Z" fill="#ededed"/>		<path d="M 107 50 L 154 50 L 154 55 L 107 55 L 107 50 Z" stroke="#9fdf00" stroke-width="1" fill="none"/>	</g></svg>