<?xml version="1.0" standalone="no"?><svg viewBox="0 0 674 93" style="background-color:#ffffff00" version="1.1" xmlns="http://www.w3.org/2000/svg" xmlns:xlink="http://www.w3.org/1999/xlink" xml:space="preserve" x="0px" y="0px" width="674px" height="93px">	<g opacity="0.8">		<path d="M 393.6 80.8 C 393.7 80.1 393.8 79.5 393.9 78.8 C 394.2 76.1 395.4 73.7 396.8 71.4 C 397.2 70.7 397.9 70.2 398.5 69.7 C 401.4 67.4 404.7 66.1 408.1 65 C 412.6 63.6 417 62.3 421.5 60.9 C 421.6 60.9 421.7 60.9 421.8 60.8 C 421.8 61.7 421.7 62.6 421.7 63.4 C 421.5 66.1 422 68.7 423.2 71.2 C 426 76.9 429.8 81.9 435.1 85.7 C 435.7 86.2 436.2 86.2 436.9 85.7 C 442.8 81.6 446.8 76 449.6 69.4 C 450.6 67 450.5 64.3 450.3 61.7 C 450.3 61.5 450.3 61.3 450.2 61 C 450.2 61 450.3 60.9 450.3 60.9 C 454.3 62 458.3 63.1 462.2 64.4 C 465.1 65.4 468 66.7 470.9 67.9 C 472 68.4 473 69.2 473.9 70 C 476.4 72.2 477.6 75.1 478 78.2 C 478.4 81 478.4 83.9 478.4 86.7 C 478.4 89.1 476.6 91.1 474.4 91.8 C 474.1 91.8 473.9 91.9 473.7 92 C 448.6 92 423.5 92 398.4 92 C 396.8 91.5 395.4 90.9 394.6 89.5 C 394.2 88.8 393.9 88 393.6 87.2 C 393.6 85.1 393.6 82.9 393.6 80.8 Z" stroke="#ffffff" stroke-width="1" fill="none"/>		<path d="M 416 28.4 C 415.9 25.3 415.5 22.3 415.6 19.3 C 415.6 10.6 420.3 4.5 428.6 2.1 C 435.9 0.1 442.9 0.7 449.3 4.9 C 453.6 7.8 455.8 11.9 456.4 17 C 456.8 20.8 456.4 24.5 455.9 28.3 C 458.2 29.1 459 30.5 458.6 33.4 C 458.3 36 457.4 38.3 455.4 40.1 C 455.2 40.4 455.1 40.7 454.9 41 C 453 45.2 450.9 49.2 447.7 52.5 C 444.3 56.1 440.2 58.1 435.2 57.9 C 430.6 57.6 426.9 55.4 423.9 52 C 420.9 48.7 418.9 44.9 417.1 41 C 416.9 40.6 416.7 40.2 416.4 39.9 C 414.1 37.4 413.1 34.4 413.5 31 C 413.8 29.3 414.4 28.7 416 28.4 ZM 453.2 23.9 C 452.7 23.8 452.4 23.8 452.1 23.8 C 449.6 23.5 447.1 23.4 444.7 23 C 438.3 22.1 432.6 19.5 428 14.8 C 427.5 14.3 427.1 14.2 426.6 14.4 C 422.7 15.3 420.6 18.1 419.1 21.4 C 419 21.6 419 21.7 419 21.9 C 419.1 23.6 419.1 25.4 419.4 27.1 C 419.6 29.2 420 31.3 420.4 33.3 C 419.9 32.3 419.4 31.3 418.7 30.3 C 418.1 29.5 417.3 29.5 416.7 30.4 C 416.5 30.7 416.3 31.1 416.3 31.5 C 416.1 34 416.7 36.2 418.5 38 C 418.9 38.5 419.3 39.1 419.6 39.6 C 420.9 42.3 422.2 45 423.7 47.7 C 425.1 50.1 426.9 52.2 429.4 53.5 C 435.6 56.8 443.1 55 447.4 49.2 C 449.5 46.3 451 42.9 452.5 39.6 C 452.7 39.1 453 38.6 453.4 38.2 C 455.2 36.5 455.9 34.3 455.8 31.8 C 455.8 30.9 455.2 29.9 454.5 29.8 C 453.6 29.6 453.2 30.4 452.8 31 C 452.4 31.8 452.1 32.6 451.7 33.3 C 452.2 30.2 452.7 27.1 453.2 23.9 Z" stroke="#ffffff" stroke-width="1" fill="none"/>		<path d="M 434.2 68.2 C 433 66.9 432 65.7 430.9 64.5 C 430.3 63.8 430.4 63.3 431 62.7 C 431.1 62.7 431.1 62.6 431.2 62.5 C 432.2 61.3 433.4 60.4 435.1 60.7 C 436 60.9 437 60.8 437.9 60.8 C 439.1 60.8 441.2 62.2 441.5 63.4 C 441.6 63.6 441.5 63.9 441.3 64.1 C 440.3 65.2 439.3 66.4 438.3 67.4 C 437.9 67.8 437.8 68.1 438 68.6 C 439.1 71.4 440.2 74.2 441.4 77 C 441.6 77.6 441.6 78 441.2 78.5 C 439.8 80.5 438 82 436 83.4 C 433.9 82 431.9 80.4 430.6 78.1 C 430.5 77.9 430.6 77.4 430.7 77.1 C 431.8 74.3 432.9 71.5 434 68.6 C 434.1 68.4 434.2 68.2 434.2 68.2 Z" stroke="#ffffff" stroke-width="1" fill="none"/>	</g>	<g opacity="0.5">		<path d="M 491.5 80.8 C 491.6 80.1 491.7 79.5 491.8 78.8 C 492.1 76.1 493.3 73.7 494.7 71.4 C 495.1 70.7 495.8 70.2 496.4 69.7 C 499.3 67.4 502.6 66.1 506 65 C 510.4 63.6 514.9 62.3 519.4 60.9 C 519.5 60.9 519.6 60.9 519.7 60.8 C 519.7 61.7 519.6 62.6 519.5 63.4 C 519.4 66.1 519.9 68.7 521.1 71.2 C 523.9 76.9 527.7 81.9 533 85.7 C 533.6 86.2 534.1 86.2 534.8 85.7 C 540.7 81.6 544.7 76 547.5 69.4 C 548.5 67 548.4 64.3 548.2 61.7 C 548.2 61.5 548.1 61.3 548.1 61 C 548.1 61 548.2 60.9 548.2 60.9 C 552.2 62 556.2 63.1 560.1 64.4 C 563 65.4 565.9 66.7 568.8 67.9 C 569.9 68.4 570.9 69.2 571.8 70 C 574.2 72.2 575.5 75.1 575.9 78.2 C 576.3 81 576.3 83.9 576.3 86.7 C 576.3 89.1 574.5 91.1 572.2 91.8 C 572 91.8 571.8 91.9 571.6 92 C 546.5 92 521.4 92 496.3 92 C 494.7 91.5 493.3 90.9 492.5 89.5 C 492.1 88.8 491.8 88 491.5 87.2 C 491.5 85.1 491.5 82.9 491.5 80.8 Z" stroke="#ffffff" stroke-width="1" fill="none"/>		<path d="M 513.9 28.4 C 513.7 25.3 513.4 22.3 513.5 19.3 C 513.5 10.6 518.2 4.5 526.5 2.1 C 533.8 0.1 540.8 0.7 547.2 4.9 C 551.5 7.8 553.7 11.9 554.3 17 C 554.7 20.8 554.3 24.5 553.7 28.3 C 556.1 29.1 556.9 30.5 556.5 33.4 C 556.2 36 555.3 38.3 553.3 40.1 C 553.1 40.4 553 40.7 552.8 41 C 550.9 45.2 548.8 49.2 545.6 52.5 C 542.2 56.1 538.1 58.1 533.1 57.9 C 528.5 57.6 524.8 55.4 521.7 52 C 518.8 48.7 516.8 44.9 515 41 C 514.8 40.6 514.6 40.2 514.3 39.9 C 512 37.4 511 34.4 511.4 31 C 511.7 29.3 512.3 28.7 513.9 28.4 ZM 551.1 23.9 C 550.5 23.8 550.3 23.8 550 23.8 C 547.5 23.5 545 23.4 542.6 23 C 536.2 22.1 530.5 19.5 525.9 14.8 C 525.4 14.3 525 14.2 524.5 14.4 C 520.6 15.3 518.5 18.1 517 21.4 C 516.9 21.6 516.9 21.7 516.9 21.9 C 517 23.6 517 25.4 517.2 27.1 C 517.5 29.2 517.9 31.3 518.3 33.3 C 517.8 32.3 517.3 31.3 516.6 30.3 C 516 29.5 515.2 29.5 514.6 30.4 C 514.4 30.7 514.2 31.1 514.1 31.5 C 514 34 514.6 36.2 516.4 38 C 516.8 38.5 517.2 39.1 517.4 39.6 C 518.8 42.3 520.1 45 521.6 47.7 C 522.9 50.1 524.8 52.2 527.3 53.5 C 533.5 56.8 541 55 545.3 49.2 C 547.4 46.3 548.9 42.9 550.4 39.6 C 550.6 39.1 550.9 38.6 551.3 38.2 C 553.1 36.5 553.8 34.3 553.7 31.8 C 553.7 30.9 553.1 29.9 552.4 29.8 C 551.5 29.6 551.1 30.4 550.7 31 C 550.3 31.8 550 32.6 549.6 33.3 C 550.1 30.2 550.6 27.1 551.1 23.9 Z" stroke="#ffffff" stroke-width="1" fill="none"/>		<path d="M 532.1 68.2 C 530.9 66.9 529.9 65.7 528.8 64.5 C 528.2 63.8 528.3 63.3 528.9 62.7 C 529 62.7 529 62.6 529.1 62.5 C 530.1 61.3 531.3 60.4 533 60.7 C 533.9 60.9 534.9 60.8 535.8 60.8 C 537 60.8 539.1 62.2 539.4 63.4 C 539.5 63.6 539.4 63.9 539.2 64.1 C 538.2 65.2 537.2 66.4 536.2 67.4 C 535.8 67.8 535.7 68.1 535.9 68.6 C 537 71.4 538.1 74.2 539.3 77 C 539.5 77.6 539.5 78 539.1 78.5 C 537.7 80.5 535.9 82 533.9 83.4 C 531.8 82 529.8 80.4 528.5 78.1 C 528.4 77.9 528.4 77.4 528.6 77.1 C 529.7 74.3 530.8 71.5 531.9 68.6 C 532 68.4 532.1 68.2 532.1 68.2 Z" stroke="#ffffff" stroke-width="1" fill="none"/>	</g>	<g opacity="0.3">		<path d="M 588.2 80.8 C 588.3 80.1 588.4 79.5 588.4 78.8 C 588.8 76.1 590 73.7 591.4 71.4 C 591.8 70.7 592.5 70.2 593.1 69.7 C 595.9 67.4 599.3 66.1 602.7 65 C 607.1 63.6 611.6 62.3 616 60.9 C 616.1 60.9 616.3 60.9 616.4 60.8 C 616.3 61.7 616.3 62.6 616.2 63.4 C 616.1 66.1 616.6 68.7 617.8 71.2 C 620.6 76.9 624.4 81.9 629.7 85.7 C 630.3 86.2 630.8 86.2 631.5 85.7 C 637.4 81.6 641.4 76 644.2 69.4 C 645.2 67 645.1 64.3 644.9 61.7 C 644.9 61.5 644.8 61.3 644.8 61 C 644.8 61 644.9 60.9 644.9 60.9 C 648.9 62 652.9 63.1 656.8 64.4 C 659.7 65.4 662.6 66.7 665.4 67.9 C 666.6 68.4 667.6 69.2 668.5 70 C 670.9 72.2 672.2 75.1 672.6 78.2 C 673 81 673 83.9 673 86.7 C 673 89.1 671.2 91.1 668.9 91.8 C 668.7 91.8 668.5 91.9 668.3 92 C 643.2 92 618.1 92 593 92 C 591.4 91.5 590 90.9 589.2 89.5 C 588.7 88.8 588.5 88 588.2 87.2 C 588.2 85.1 588.2 82.9 588.2 80.8 Z" stroke="#ffffff" stroke-width="1" fill="none"/>		<path d="M 610.6 28.4 C 610.4 25.3 610.1 22.3 610.1 19.3 C 610.2 10.6 614.9 4.5 623.2 2.1 C 630.5 0.1 637.5 0.7 643.9 4.9 C 648.2 7.8 650.4 11.9 650.9 17 C 651.4 20.8 651 24.5 650.4 28.3 C 652.8 29.1 653.6 30.5 653.2 33.4 C 652.8 36 652 38.3 650 40.1 C 649.8 40.4 649.6 40.7 649.5 41 C 647.6 45.2 645.4 49.2 642.3 52.5 C 638.9 56.1 634.8 58.1 629.8 57.9 C 625.2 57.6 621.5 55.4 618.4 52 C 615.5 48.7 613.5 44.9 611.7 41 C 611.5 40.6 611.2 40.2 611 39.9 C 608.7 37.4 607.7 34.4 608.1 31 C 608.4 29.3 609 28.7 610.6 28.4 ZM 647.8 23.9 C 647.2 23.8 646.9 23.8 646.7 23.8 C 644.2 23.5 641.7 23.4 639.3 23 C 632.8 22.1 627.2 19.5 622.6 14.8 C 622.1 14.3 621.7 14.2 621.1 14.4 C 617.3 15.3 615.2 18.1 613.7 21.4 C 613.6 21.6 613.6 21.7 613.6 21.9 C 613.7 23.6 613.7 25.4 613.9 27.1 C 614.2 29.2 614.6 31.3 615 33.3 C 614.4 32.3 614 31.3 613.3 30.3 C 612.7 29.5 611.9 29.5 611.3 30.4 C 611.1 30.7 610.9 31.1 610.8 31.5 C 610.7 34 611.3 36.2 613 38 C 613.5 38.5 613.8 39.1 614.1 39.6 C 615.5 42.3 616.8 45 618.3 47.7 C 619.6 50.1 621.5 52.2 624 53.5 C 630.2 56.8 637.7 55 641.9 49.2 C 644.1 46.3 645.6 42.9 647.1 39.6 C 647.3 39.1 647.6 38.6 648 38.2 C 649.8 36.5 650.5 34.3 650.4 31.8 C 650.4 30.9 649.8 29.9 649.1 29.8 C 648.2 29.6 647.8 30.4 647.4 31 C 647 31.8 646.7 32.6 646.3 33.3 C 646.8 30.2 647.3 27.1 647.8 23.9 Z" stroke="#ffffff" stroke-width="1" fill="none"/>		<path d="M 628.8 68.2 C 627.6 66.9 626.5 65.7 625.5 64.5 C 624.9 63.8 625 63.3 625.6 62.7 C 625.7 62.7 625.7 62.6 625.8 62.5 C 626.8 61.3 628 60.4 629.7 60.7 C 630.6 60.9 631.5 60.8 632.5 60.8 C 633.7 60.8 635.7 62.2 636.1 63.4 C 636.2 63.6 636.1 63.9 635.9 64.1 C 634.9 65.2 633.9 66.4 632.9 67.4 C 632.5 67.8 632.4 68.1 632.6 68.6 C 633.7 71.4 634.8 74.2 636 77 C 636.2 77.6 636.1 78 635.8 78.5 C 634.4 80.5 632.6 82 630.6 83.4 C 628.5 82 626.5 80.4 625.2 78.1 C 625 77.9 625.1 77.4 625.2 77.1 C 626.4 74.3 627.5 71.5 628.6 68.6 C 628.7 68.4 628.8 68.2 628.8 68.2 Z" stroke="#ffffff" stroke-width="1" fill="none"/>	</g>	<g opacity="0.8">		<path d="M 196.8 80.8 C 196.9 80.1 197 79.5 197.1 78.8 C 197.4 76.1 198.6 73.7 200 71.4 C 200.4 70.7 201.1 70.2 201.7 69.7 C 204.6 67.4 207.9 66.1 211.3 65 C 215.7 63.6 220.2 62.3 224.7 60.9 C 224.8 60.9 224.9 60.9 225 60.8 C 225 61.7 224.9 62.6 224.8 63.4 C 224.7 66.1 225.2 68.7 226.4 71.2 C 229.2 76.9 233 81.9 238.3 85.7 C 238.9 86.2 239.4 86.2 240.1 85.7 C 246 81.6 250 76 252.8 69.4 C 253.8 67 253.7 64.3 253.5 61.7 C 253.5 61.5 253.4 61.3 253.4 61 C 253.4 61 253.5 60.9 253.5 60.9 C 257.5 62 261.5 63.1 265.4 64.4 C 268.3 65.4 271.2 66.7 274.1 67.9 C 275.2 68.4 276.2 69.2 277.1 70 C 279.5 72.2 280.8 75.1 281.2 78.2 C 281.6 81 281.6 83.9 281.6 86.7 C 281.6 89.1 279.8 91.1 277.5 91.8 C 277.3 91.8 277.1 91.9 276.9 92 C 251.8 92 226.7 92 201.6 92 C 200 91.5 198.6 90.9 197.8 89.5 C 197.4 88.8 197.1 88 196.8 87.2 C 196.8 85.1 196.8 82.9 196.8 80.8 Z" stroke="#ffffff" stroke-width="1" fill="none"/>		<path d="M 219.2 28.4 C 219 25.3 218.7 22.3 218.8 19.3 C 218.8 10.6 223.5 4.5 231.8 2.1 C 239.1 0.1 246.1 0.7 252.5 4.9 C 256.8 7.8 259 11.9 259.6 17 C 260 20.8 259.6 24.5 259 28.3 C 261.4 29.1 262.2 30.5 261.8 33.4 C 261.5 36 260.6 38.3 258.6 40.1 C 258.4 40.4 258.3 40.7 258.1 41 C 256.2 45.2 254.1 49.2 250.9 52.5 C 247.5 56.1 243.4 58.1 238.4 57.9 C 233.8 57.6 230.1 55.4 227 52 C 224.1 48.7 222.1 44.9 220.3 41 C 220.1 40.6 219.9 40.2 219.6 39.9 C 217.3 37.4 216.3 34.4 216.7 31 C 217 29.3 217.6 28.7 219.2 28.4 ZM 256.4 23.9 C 255.8 23.8 255.6 23.8 255.3 23.8 C 252.8 23.5 250.3 23.4 247.9 23 C 241.5 22.1 235.8 19.5 231.2 14.8 C 230.7 14.3 230.3 14.2 229.8 14.4 C 225.9 15.3 223.8 18.1 222.3 21.4 C 222.2 21.6 222.2 21.7 222.2 21.9 C 222.3 23.6 222.3 25.4 222.5 27.1 C 222.8 29.2 223.2 31.3 223.6 33.3 C 223.1 32.3 222.6 31.3 221.9 30.3 C 221.3 29.5 220.5 29.5 219.9 30.4 C 219.7 30.7 219.5 31.1 219.4 31.5 C 219.3 34 219.9 36.2 221.7 38 C 222.1 38.5 222.5 39.1 222.7 39.6 C 224.1 42.3 225.4 45 226.9 47.7 C 228.2 50.1 230.1 52.2 232.6 53.5 C 238.8 56.8 246.3 55 250.6 49.2 C 252.7 46.3 254.2 42.9 255.7 39.6 C 255.9 39.1 256.2 38.6 256.6 38.2 C 258.4 36.5 259.1 34.3 259 31.8 C 259 30.9 258.4 29.9 257.7 29.8 C 256.8 29.6 256.4 30.4 256 31 C 255.6 31.8 255.3 32.6 254.9 33.3 C 255.4 30.2 255.9 27.1 256.4 23.9 Z" stroke="#ffffff" stroke-width="1" fill="none"/>		<path d="M 237.4 68.2 C 236.2 66.9 235.2 65.7 234.1 64.5 C 233.5 63.8 233.6 63.3 234.2 62.7 C 234.3 62.7 234.3 62.6 234.4 62.5 C 235.4 61.3 236.6 60.4 238.3 60.7 C 239.2 60.9 240.2 60.8 241.1 60.8 C 242.3 60.8 244.4 62.2 244.7 63.4 C 244.8 63.6 244.7 63.9 244.5 64.1 C 243.5 65.2 242.5 66.4 241.5 67.4 C 241.1 67.8 241 68.1 241.2 68.6 C 242.3 71.4 243.4 74.2 244.6 77 C 244.8 77.6 244.8 78 244.4 78.5 C 243 80.5 241.2 82 239.2 83.4 C 237.1 82 235.1 80.4 233.8 78.1 C 233.7 77.9 233.7 77.4 233.9 77.1 C 235 74.3 236.1 71.5 237.2 68.6 C 237.3 68.4 237.4 68.2 237.4 68.2 Z" stroke="#ffffff" stroke-width="1" fill="none"/>	</g>	<g>		<path d="M 295.7 80.8 C 295.8 80.1 295.9 79.5 296 78.8 C 296.3 76.1 297.5 73.7 298.9 71.4 C 299.3 70.7 300 70.2 300.6 69.7 C 303.5 67.4 306.8 66.1 310.2 65 C 314.7 63.6 319.1 62.3 323.6 60.9 C 323.7 60.9 323.8 60.9 323.9 60.8 C 323.9 61.7 323.8 62.6 323.8 63.4 C 323.6 66.1 324.1 68.7 325.3 71.2 C 328.2 76.9 331.9 81.9 337.2 85.7 C 337.9 86.2 338.3 86.2 339 85.7 C 344.9 81.6 348.9 76 351.7 69.4 C 352.7 67 352.6 64.3 352.4 61.7 C 352.4 61.5 352.4 61.3 352.3 61 C 352.3 61 352.4 60.9 352.4 60.9 C 356.4 62 360.4 63.1 364.3 64.4 C 367.3 65.4 370.1 66.7 373 67.9 C 374.1 68.4 375.1 69.2 376 70 C 378.5 72.2 379.7 75.1 380.1 78.2 C 380.6 81 380.5 83.9 380.5 86.7 C 380.5 89.1 378.7 91.1 376.5 91.8 C 376.2 91.8 376 91.9 375.8 92 C 350.7 92 325.6 92 300.5 92 C 299 91.5 297.5 90.9 296.7 89.5 C 296.3 88.8 296 88 295.7 87.2 C 295.7 85.1 295.7 82.9 295.7 80.8 Z" stroke="#ffffff" stroke-width="1" fill="none"/>		<path d="M 318.1 28.4 C 318 25.3 317.6 22.3 317.7 19.3 C 317.7 10.6 322.4 4.5 330.7 2.1 C 338 0.1 345 0.7 351.4 4.9 C 355.7 7.8 357.9 11.9 358.5 17 C 358.9 20.8 358.5 24.5 358 28.3 C 360.3 29.1 361.1 30.5 360.7 33.4 C 360.4 36 359.5 38.3 357.6 40.1 C 357.3 40.4 357.2 40.7 357 41 C 355.1 45.2 353 49.2 349.8 52.5 C 346.4 56.1 342.3 58.1 337.4 57.9 C 332.7 57.6 329 55.4 326 52 C 323 48.7 321 44.9 319.2 41 C 319 40.6 318.8 40.2 318.5 39.9 C 316.2 37.4 315.2 34.4 315.6 31 C 315.9 29.3 316.5 28.7 318.1 28.4 ZM 355.3 23.9 C 354.8 23.8 354.5 23.8 354.2 23.8 C 351.7 23.5 349.3 23.4 346.8 23 C 340.4 22.1 334.7 19.5 330.1 14.8 C 329.7 14.3 329.2 14.2 328.7 14.4 C 324.8 15.3 322.7 18.1 321.2 21.4 C 321.1 21.6 321.1 21.7 321.1 21.9 C 321.2 23.6 321.2 25.4 321.5 27.1 C 321.7 29.2 322.2 31.3 322.5 33.3 C 322 32.3 321.5 31.3 320.8 30.3 C 320.2 29.5 319.4 29.5 318.8 30.4 C 318.6 30.7 318.4 31.1 318.4 31.5 C 318.2 34 318.9 36.2 320.6 38 C 321 38.5 321.4 39.1 321.7 39.6 C 323 42.3 324.3 45 325.8 47.7 C 327.2 50.1 329 52.2 331.5 53.5 C 337.7 56.8 345.2 55 349.5 49.2 C 351.6 46.3 353.1 42.9 354.6 39.6 C 354.8 39.1 355.1 38.6 355.5 38.2 C 357.3 36.5 358 34.3 358 31.8 C 357.9 30.9 357.3 29.9 356.6 29.8 C 355.7 29.6 355.3 30.4 354.9 31 C 354.5 31.8 354.2 32.6 353.8 33.3 C 354.3 30.2 354.8 27.1 355.3 23.9 Z" stroke="#ffffff" stroke-width="1" fill="none"/>		<path d="M 336.3 68.2 C 335.1 66.9 334.1 65.7 333 64.5 C 332.4 63.8 332.5 63.3 333.1 62.7 C 333.2 62.7 333.2 62.6 333.3 62.5 C 334.3 61.3 335.5 60.4 337.2 60.7 C 338.1 60.9 339.1 60.8 340 60.8 C 341.2 60.8 343.3 62.2 343.6 63.4 C 343.7 63.6 343.6 63.9 343.4 64.1 C 342.4 65.2 341.5 66.4 340.4 67.4 C 340 67.8 339.9 68.1 340.1 68.6 C 341.2 71.4 342.3 74.2 343.5 77 C 343.7 77.6 343.7 78 343.3 78.5 C 341.9 80.5 340.1 82 338.1 83.4 C 336 82 334 80.4 332.7 78.1 C 332.6 77.9 332.7 77.4 332.8 77.1 C 333.9 74.3 335 71.5 336.1 68.6 C 336.2 68.4 336.3 68.2 336.3 68.2 Z" stroke="#ffffff" stroke-width="1" fill="none"/>	</g>	<g opacity="0.5">		<path d="M 98.9 80.8 C 99 80.1 99.1 79.5 99.2 78.8 C 99.5 76.1 100.7 73.7 102.1 71.4 C 102.5 70.7 103.2 70.2 103.8 69.7 C 106.7 67.4 110 66.1 113.4 65 C 117.9 63.6 122.3 62.3 126.8 60.9 C 126.9 60.9 127 60.9 127.1 60.8 C 127.1 61.7 127 62.6 127 63.4 C 126.8 66.1 127.3 68.7 128.5 71.2 C 131.3 76.9 135.1 81.9 140.4 85.7 C 141 86.2 141.5 86.2 142.2 85.7 C 148.1 81.6 152.1 76 154.9 69.4 C 155.9 67 155.8 64.3 155.6 61.7 C 155.6 61.5 155.6 61.3 155.5 61 C 155.5 61 155.6 60.9 155.6 60.9 C 159.6 62 163.6 63.1 167.5 64.4 C 170.4 65.4 173.3 66.7 176.2 67.9 C 177.3 68.4 178.3 69.2 179.2 70 C 181.7 72.2 182.9 75.1 183.3 78.2 C 183.7 81 183.7 83.9 183.7 86.7 C 183.7 89.1 181.9 91.1 179.7 91.8 C 179.4 91.8 179.2 91.9 179 92 C 153.9 92 128.8 92 103.7 92 C 102.1 91.5 100.7 90.9 99.9 89.5 C 99.5 88.8 99.2 88 98.9 87.2 C 98.9 85.1 98.9 82.9 98.9 80.8 Z" stroke="#ffffff" stroke-width="1" fill="none"/>		<path d="M 121.3 28.4 C 121.2 25.3 120.8 22.3 120.9 19.3 C 120.9 10.6 125.6 4.5 133.9 2.1 C 141.2 0.1 148.2 0.7 154.6 4.9 C 158.9 7.8 161.1 11.9 161.7 17 C 162.1 20.8 161.7 24.5 161.2 28.3 C 163.5 29.1 164.3 30.5 163.9 33.4 C 163.6 36 162.7 38.3 160.7 40.1 C 160.5 40.4 160.4 40.7 160.2 41 C 158.3 45.2 156.2 49.2 153 52.5 C 149.6 56.1 145.5 58.1 140.5 57.9 C 135.9 57.6 132.2 55.4 129.2 52 C 126.2 48.7 124.2 44.9 122.4 41 C 122.2 40.6 122 40.2 121.7 39.9 C 119.4 37.4 118.4 34.4 118.8 31 C 119.1 29.3 119.7 28.7 121.3 28.4 ZM 158.5 23.9 C 158 23.8 157.7 23.8 157.4 23.8 C 154.9 23.5 152.4 23.4 150 23 C 143.6 22.1 137.9 19.5 133.3 14.8 C 132.8 14.3 132.4 14.2 131.9 14.4 C 128 15.3 125.9 18.1 124.4 21.4 C 124.3 21.6 124.3 21.7 124.3 21.9 C 124.4 23.6 124.4 25.4 124.7 27.1 C 124.9 29.2 125.3 31.3 125.7 33.3 C 125.2 32.3 124.7 31.3 124 30.3 C 123.4 29.5 122.6 29.5 122 30.4 C 121.8 30.7 121.6 31.1 121.5 31.5 C 121.4 34 122 36.2 123.8 38 C 124.2 38.5 124.6 39.1 124.9 39.6 C 126.2 42.3 127.5 45 129 47.7 C 130.4 50.1 132.2 52.2 134.7 53.5 C 140.9 56.8 148.4 55 152.7 49.2 C 154.8 46.3 156.3 42.9 157.8 39.6 C 158 39.1 158.3 38.6 158.7 38.2 C 160.5 36.5 161.2 34.3 161.1 31.8 C 161.1 30.9 160.5 29.9 159.8 29.8 C 158.9 29.6 158.5 30.4 158.1 31 C 157.7 31.8 157.4 32.6 157 33.3 C 157.5 30.2 158 27.1 158.5 23.9 Z" stroke="#ffffff" stroke-width="1" fill="none"/>		<path d="M 139.5 68.2 C 138.3 66.9 137.3 65.7 136.2 64.5 C 135.6 63.8 135.7 63.3 136.3 62.7 C 136.4 62.7 136.4 62.6 136.5 62.5 C 137.5 61.3 138.7 60.4 140.4 60.7 C 141.3 60.9 142.3 60.8 143.2 60.8 C 144.4 60.8 146.5 62.2 146.8 63.4 C 146.9 63.6 146.8 63.9 146.6 64.1 C 145.6 65.2 144.6 66.4 143.6 67.4 C 143.2 67.8 143.1 68.1 143.3 68.6 C 144.4 71.4 145.5 74.2 146.7 77 C 146.9 77.6 146.9 78 146.5 78.5 C 145.1 80.5 143.3 82 141.3 83.4 C 139.2 82 137.2 80.4 135.9 78.1 C 135.8 77.9 135.9 77.4 136 77.1 C 137.1 74.3 138.2 71.5 139.3 68.6 C 139.4 68.4 139.5 68.2 139.5 68.2 Z" stroke="#ffffff" stroke-width="1" fill="none"/>	</g>	<g opacity="0.3">		<path d="M 1 80.8 C 1.1 80.1 1.2 79.5 1.3 78.8 C 1.6 76.1 2.8 73.7 4.2 71.4 C 4.6 70.7 5.3 70.2 5.9 69.7 C 8.8 67.4 12.1 66.1 15.5 65 C 20 63.6 24.4 62.3 28.9 60.9 C 29 60.9 29.1 60.9 29.2 60.8 C 29.2 61.7 29.1 62.6 29.1 63.4 C 28.9 66.1 29.4 68.7 30.6 71.2 C 33.5 76.9 37.2 81.9 42.5 85.7 C 43.2 86.2 43.6 86.2 44.3 85.7 C 50.2 81.6 54.2 76 57 69.4 C 58 67 57.9 64.3 57.7 61.7 C 57.7 61.5 57.7 61.3 57.6 61 C 57.6 61 57.7 60.9 57.7 60.9 C 61.7 62 65.7 63.1 69.6 64.4 C 72.6 65.4 75.4 66.7 78.3 67.9 C 79.4 68.4 80.4 69.2 81.3 70 C 83.8 72.2 85 75.1 85.4 78.2 C 85.9 81 85.8 83.9 85.8 86.7 C 85.8 89.1 84 91.1 81.8 91.8 C 81.5 91.8 81.3 91.9 81.1 92 C 56 92 30.9 92 5.8 92 C 4.3 91.5 2.8 90.9 2 89.5 C 1.6 88.8 1.3 88 1 87.2 C 1 85.1 1 82.9 1 80.8 Z" stroke="#ffffff" stroke-width="1" fill="none"/>		<path d="M 23.4 28.4 C 23.3 25.3 22.9 22.3 23 19.3 C 23 10.6 27.7 4.5 36 2.1 C 43.3 0.1 50.3 0.7 56.7 4.9 C 61 7.8 63.2 11.9 63.8 17 C 64.2 20.8 63.8 24.5 63.3 28.3 C 65.6 29.1 66.4 30.5 66 33.4 C 65.7 36 64.8 38.3 62.8 40.1 C 62.6 40.4 62.5 40.7 62.3 41 C 60.4 45.2 58.3 49.2 55.1 52.5 C 51.7 56.1 47.6 58.1 42.7 57.9 C 38 57.6 34.3 55.4 31.3 52 C 28.3 48.7 26.3 44.9 24.5 41 C 24.3 40.6 24.1 40.2 23.8 39.9 C 21.5 37.4 20.5 34.4 20.9 31 C 21.2 29.3 21.8 28.7 23.4 28.4 ZM 60.6 23.9 C 60.1 23.8 59.8 23.8 59.5 23.8 C 57 23.5 54.6 23.4 52.1 23 C 45.7 22.1 40 19.5 35.4 14.8 C 34.9 14.3 34.5 14.2 34 14.4 C 30.1 15.3 28 18.1 26.5 21.4 C 26.4 21.6 26.4 21.7 26.4 21.9 C 26.5 23.6 26.5 25.4 26.8 27.1 C 27 29.2 27.5 31.3 27.8 33.3 C 27.3 32.3 26.8 31.3 26.1 30.3 C 25.5 29.5 24.7 29.5 24.1 30.4 C 23.9 30.7 23.7 31.1 23.7 31.5 C 23.5 34 24.2 36.2 25.9 38 C 26.3 38.5 26.7 39.1 27 39.6 C 28.3 42.3 29.6 45 31.1 47.7 C 32.5 50.1 34.3 52.2 36.8 53.5 C 43 56.8 50.5 55 54.8 49.2 C 56.9 46.3 58.4 42.9 59.9 39.6 C 60.1 39.1 60.4 38.6 60.8 38.2 C 62.6 36.5 63.3 34.3 63.3 31.8 C 63.2 30.9 62.6 29.9 61.9 29.8 C 61 29.6 60.6 30.4 60.2 31 C 59.8 31.8 59.5 32.6 59.1 33.3 C 59.6 30.2 60.1 27.1 60.6 23.9 Z" stroke="#ffffff" stroke-width="1" fill="none"/>		<path d="M 41.6 68.2 C 40.4 66.9 39.4 65.7 38.3 64.5 C 37.7 63.8 37.8 63.3 38.4 62.7 C 38.5 62.7 38.5 62.6 38.6 62.5 C 39.6 61.3 40.8 60.4 42.5 60.7 C 43.4 60.9 44.4 60.8 45.3 60.8 C 46.5 60.8 48.6 62.2 48.9 63.4 C 49 63.6 48.9 63.9 48.7 64.1 C 47.7 65.2 46.8 66.4 45.7 67.4 C 45.3 67.8 45.2 68.1 45.4 68.6 C 46.5 71.4 47.6 74.2 48.8 77 C 49 77.6 49 78 48.6 78.5 C 47.2 80.5 45.4 82 43.4 83.4 C 41.3 82 39.3 80.4 38 78.1 C 37.9 77.9 38 77.4 38.1 77.1 C 39.2 74.3 40.3 71.5 41.4 68.6 C 41.5 68.4 41.6 68.2 41.6 68.2 Z" stroke="#ffffff" stroke-width="1" fill="none"/>	</g></svg>